<svg xmlns="http://www.w3.org/2000/svg" width="18.011" height="17.181" viewBox="0 0 18.011 17.181">
  <g id="star" transform="translate(1 -11.796)">
    <g id="Group_1476" data-name="Group 1476" transform="translate(0 11.796)">
      <path id="Path_216" data-name="Path 216" d="M17.985,18.32a.527.527,0,0,0-.426-.359l-5.583-.811-2.5-5.059a.528.528,0,0,0-.946,0l-2.5,5.059-5.583.811a.528.528,0,0,0-.292.9L4.2,22.8,3.246,28.36a.528.528,0,0,0,.766.556L9.005,26.29,14,28.916a.528.528,0,0,0,.766-.556L13.811,22.8l4.04-3.938A.527.527,0,0,0,17.985,18.32Z" transform="translate(-1 -11.796)" fill="#dbdbdb"/>
    </g>
  </g>
</svg>
