<svg xmlns="http://www.w3.org/2000/svg" width="18.632" height="17.7" viewBox="0 0 18.632 17.7">
  <path id="chat" d="M9.316,1.5C4.179,1.5,0,5.261,0,9.884a7.751,7.751,0,0,0,1.481,4.535C1.3,16.449.805,17.956.091,18.67a.31.31,0,0,0,.22.53.291.291,0,0,0,.043,0,16.589,16.589,0,0,0,5.16-1.658,10.108,10.108,0,0,0,3.8.729c5.137,0,9.316-3.761,9.316-8.384S14.452,1.5,9.316,1.5ZM4.968,11.126A1.242,1.242,0,1,1,6.21,9.884,1.243,1.243,0,0,1,4.968,11.126Zm4.347,0a1.242,1.242,0,1,1,1.242-1.242A1.243,1.243,0,0,1,9.316,11.126Zm4.347,0a1.242,1.242,0,1,1,1.242-1.242A1.243,1.243,0,0,1,13.663,11.126Z" transform="translate(0 -1.5)" fill="#f6f6f6"/>
</svg>
