<svg xmlns="http://www.w3.org/2000/svg" width="15.097" height="17.042" viewBox="0 0 15.097 17.042">
  <g id="stack" transform="translate(-22.071)">
    <g id="Group_1471" data-name="Group 1471" transform="translate(22.071 0)">
      <g id="Group_1470" data-name="Group 1470" transform="translate(0 0)">
        <path id="Path_212" data-name="Path 212" d="M36.522,3.729,31.182.4a3.23,3.23,0,0,0-3.124,0L22.719,3.729a1.055,1.055,0,0,0,0,1.946L28.058,9a3.23,3.23,0,0,0,3.124,0l5.339-3.326A1.055,1.055,0,0,0,36.522,3.729Zm-6.1,3.706a1.623,1.623,0,0,1-1.593,0l-4.3-2.73,4.3-2.721a1.627,1.627,0,0,1,1.593,0l4.3,2.721Z" transform="translate(-22.072 0)" fill="#dbdbdb"/>
        <path id="Path_215" data-name="Path 215" d="M7.955.939l5.97,3.739L7.955,8.639,1.594,4.677Z" fill="#dbdbdb"/>
      </g>
    </g>
    <g id="Group_1473" data-name="Group 1473" transform="translate(22.071 7.523)">
      <g id="Group_1472" data-name="Group 1472" transform="translate(0)">
        <path id="Path_213" data-name="Path 213" d="M36.521,170.749l-.111-.069-5.61,3.54h0l-.372.236a1.623,1.623,0,0,1-1.593,0l-4.3-2.73h0l-1.681-1.059-.133.083a1.055,1.055,0,0,0,0,1.946l5.339,3.326a3.229,3.229,0,0,0,3.124,0l5.339-3.326A1.055,1.055,0,0,0,36.521,170.749Z" transform="translate(-22.071 -170.666)" fill="#dbdbdb"/>
      </g>
    </g>
    <g id="Group_1475" data-name="Group 1475" transform="translate(22.071 11.285)">
      <g id="Group_1474" data-name="Group 1474" transform="translate(0)">
        <path id="Path_214" data-name="Path 214" d="M36.522,256.083l-.111-.069-5.61,3.54h0l-.372.236a1.623,1.623,0,0,1-1.593,0l-4.3-2.73h0L22.851,256l-.133.083a1.055,1.055,0,0,0,0,1.946l5.339,3.326a3.23,3.23,0,0,0,3.124,0l5.339-3.326A1.055,1.055,0,0,0,36.522,256.083Z" transform="translate(-22.072 -256)" fill="#dbdbdb"/>
      </g>
    </g>
  </g>
</svg>
