<svg xmlns="http://www.w3.org/2000/svg" width="15.623" height="17.042" viewBox="0 0 15.623 17.042">
  <path id="Path_155" data-name="Path 155" d="M15.615,14.167a2.759,2.759,0,0,1-.815,2.108,2.993,2.993,0,0,1-2.151.763H2.958a3.01,3.01,0,0,1-2.151-.763A2.785,2.785,0,0,1,0,14.167V13.022a11.382,11.382,0,0,1,.156-1.215,10.506,10.506,0,0,1,.295-1.2A5.726,5.726,0,0,1,.962,9.543a3.887,3.887,0,0,1,.694-.868A2.872,2.872,0,0,1,2.6,8.033a3.357,3.357,0,0,1,1.241-.226,1.518,1.518,0,0,1,.494.243L5.2,8.58a5.205,5.205,0,0,0,1.2.538,4.806,4.806,0,0,0,1.475.234A4.9,4.9,0,0,0,9.36,9.118a5.205,5.205,0,0,0,1.2-.538l.868-.529a1.518,1.518,0,0,1,.356-.243,3.357,3.357,0,0,1,1.232.226,2.967,2.967,0,0,1,.946.59,3.861,3.861,0,0,1,.685.868,5.205,5.205,0,0,1,.477,1.084,8.953,8.953,0,0,1,.295,1.2,11.382,11.382,0,0,1,.2,1.241ZM12.067,4.259a4.086,4.086,0,0,1-1.241,3.01A4.112,4.112,0,0,1,7.807,8.519,4.1,4.1,0,0,1,4.8,7.27a4.1,4.1,0,0,1-1.249-3.01A4.1,4.1,0,0,1,4.8,1.249,4.1,4.1,0,0,1,7.807,0a4.112,4.112,0,0,1,3.019,1.249A4.1,4.1,0,0,1,12.067,4.259Z" transform="translate(0.004 0)" fill="#dbdbdb"/>
</svg>
