<svg xmlns="http://www.w3.org/2000/svg" width="16.416" height="16.417" viewBox="0 0 16.416 16.417">
  <path id="home" d="M15.975,7.14h0l-6.7-6.7a1.511,1.511,0,0,0-2.137,0L.445,7.136l-.007.007A1.511,1.511,0,0,0,1.445,9.717l.047,0h.267v4.928a1.771,1.771,0,0,0,1.769,1.769h2.62a.481.481,0,0,0,.481-.481V12.072a.808.808,0,0,1,.807-.807H8.981a.808.808,0,0,1,.807.807v3.864a.481.481,0,0,0,.481.481h2.62a1.771,1.771,0,0,0,1.769-1.769V9.72h.248a1.512,1.512,0,0,0,1.07-2.58Zm0,0" transform="translate(0 0)" fill="#dbdbdb"/>
</svg>
