<svg xmlns="http://www.w3.org/2000/svg" width="16" height="9" viewBox="0 0 16 9">
  <path id="Path_226" data-name="Path 226" d="M8,98.725a10.141,10.141,0,0,0-7.875,4.142.571.571,0,0,0,0,.713A10.135,10.135,0,0,0,8,107.725a10.141,10.141,0,0,0,7.875-4.142.571.571,0,0,0,0-.713A10.135,10.135,0,0,0,8,98.725Zm.219,7.669a3.182,3.182,0,1,1-.439-6.338,3.182,3.182,0,1,1,.439,6.338Zm-.1-1.464a1.76,1.76,0,0,1-1.925-1.816c.056-.852,1.692-1.6,1.692-1.6s2,.784,1.925,1.816A1.771,1.771,0,0,1,8.118,104.93Z" transform="translate(0 -98.725)" fill="#fff"/>
</svg>
